<svg width="24" height="24" viewBox="0 0 24 24" fill="none" xmlns="http://www.w3.org/2000/svg">
<path d="M12 11.5V20M12 20L15 17M12 20L9.00002 17M8.00002 7.036C8.74832 7.14301 9.44151 7.49049 9.97502 8.026M17.5 14C19.019 14 20 12.769 20 11.25C20 10.6486 19.8028 10.0638 19.4387 9.58521C19.0746 9.10659 18.5636 8.76052 17.984 8.6C17.8948 7.47846 17.43 6.41977 16.6647 5.5951C15.8994 4.77042 14.8783 4.22797 13.7665 4.05543C12.6547 3.88289 11.5173 4.09036 10.538 4.64429C9.55874 5.19822 8.79491 6.06624 8.37002 7.108C7.47544 6.86002 6.519 6.97757 5.71109 7.43479C4.90318 7.892 4.30999 8.65143 4.06202 9.546C3.81404 10.4406 3.93159 11.397 4.3888 12.2049C4.84601 13.0128 5.60544 13.606 6.50002 13.854" stroke="white" stroke-width="2" stroke-linecap="round" stroke-linejoin="round"/>
</svg>
